<svg xmlns="http://www.w3.org/2000/svg" style="display:none">
<symbol id="icon-apple" viewBox="0 0 24 24" fill="none" stroke="currentColor" stroke-width="2" stroke-linecap="round" stroke-linejoin="round">
  <path d="M12 6.528V3a1 1 0 0 1 1-1h0" />
  <path d="M18.237 21A15 15 0 0 0 22 11a6 6 0 0 0-10-4.472A6 6 0 0 0 2 11a15.1 15.1 0 0 0 3.763 10 3 3 0 0 0 3.648.648 5.5 5.5 0 0 1 5.178 0A3 3 0 0 0 18.237 21" />
</symbol>
<symbol id="icon-banana" viewBox="0 0 24 24" fill="none" stroke="currentColor" stroke-width="2" stroke-linecap="round" stroke-linejoin="round">
  <path d="M4 13c3.5-2 8-2 10 2a5.5 5.5 0 0 1 8 5" />
  <path d="M5.15 17.89c5.52-1.52 8.65-6.89 7-12C11.55 4 11.5 2 13 2c3.22 0 5 5.5 5 8 0 6.5-4.2 12-10.49 12C5.11 22 2 22 2 20c0-1.5 1.14-1.55 3.15-2.11Z" />
</symbol>
<symbol id="icon-citrus" viewBox="0 0 24 24" fill="none" stroke="currentColor" stroke-width="2" stroke-linecap="round" stroke-linejoin="round">
  <path d="M21.66 17.67a1.08 1.08 0 0 1-.04 1.6A12 12 0 0 1 4.73 2.38a1.1 1.1 0 0 1 1.61-.04z" />
  <path d="M19.65 15.66A8 8 0 0 1 8.35 4.34" />
  <path d="m14 10-5.5 5.5" />
  <path d="M14 17.85V10H6.15" />
</symbol>
<symbol id="icon-grape" viewBox="0 0 24 24" fill="none" stroke="currentColor" stroke-width="2" stroke-linecap="round" stroke-linejoin="round">
  <path d="M22 5V2l-5.89 5.89" />
  <circle cx="16.6" cy="15.89" r="3" />
  <circle cx="8.11" cy="7.4" r="3" />
  <circle cx="12.35" cy="11.65" r="3" />
  <circle cx="13.91" cy="5.85" r="3" />
  <circle cx="18.15" cy="10.09" r="3" />
  <circle cx="6.56" cy="13.2" r="3" />
  <circle cx="10.8" cy="17.44" r="3" />
  <circle cx="5" cy="19" r="3" />
</symbol>
<symbol id="icon-cherry" viewBox="0 0 24 24" fill="none" stroke="currentColor" stroke-width="2" stroke-linecap="round" stroke-linejoin="round">
  <path d="M2 17a5 5 0 0 0 10 0c0-2.76-2.5-5-5-3-2.5-2-5 .24-5 3Z" />
  <path d="M12 17a5 5 0 0 0 10 0c0-2.76-2.5-5-5-3-2.5-2-5 .24-5 3Z" />
  <path d="M7 14c3.22-2.91 4.29-8.75 5-12 1.66 2.38 4.94 9 5 12" />
  <path d="M22 9c-4.29 0-7.14-2.33-10-7 5.71 0 10 4.67 10 7Z" />
</symbol>
<symbol id="icon-ice-cream" viewBox="0 0 24 24" fill="none" stroke="currentColor" stroke-width="2" stroke-linecap="round" stroke-linejoin="round">
  <path d="m7 11 4.08 10.35a1 1 0 0 0 1.84 0L17 11" />
  <path d="M17 7A5 5 0 0 0 7 7" />
  <path d="M17 7a2 2 0 0 1 0 4H7a2 2 0 0 1 0-4" />
</symbol>
<symbol id="icon-carrot" viewBox="0 0 24 24" fill="none" stroke="currentColor" stroke-width="2" stroke-linecap="round" stroke-linejoin="round">
  <path d="M15 16a1 1 0 0 0-7-7q-4 4-5.987 12.385a.5.5 0 0 0 .602.602Q11 20 15 16l-3-3" />
  <path d="M15 9q4 4 7 0-3-4-7 0 4-4 0-7-4 3 0 7" />
  <path d="m8 15-2.58-2.58" />
</symbol>
<symbol id="icon-salad" viewBox="0 0 24 24" fill="none" stroke="currentColor" stroke-width="2" stroke-linecap="round" stroke-linejoin="round">
  <path d="M7 21h10" />
  <path d="M12 21a9 9 0 0 0 9-9H3a9 9 0 0 0 9 9Z" />
  <path d="M11.38 12a2.4 2.4 0 0 1-.4-4.77 2.4 2.4 0 0 1 3.2-2.77 2.4 2.4 0 0 1 3.47-.63 2.4 2.4 0 0 1 3.37 3.37 2.4 2.4 0 0 1-1.1 3.7 2.51 2.51 0 0 1 .03 1.1" />
  <path d="m13 12 4-4" />
  <path d="M10.9 7.25A3.99 3.99 0 0 0 4 10c0 .73.2 1.41.54 2" />
</symbol>
<symbol id="icon-sprout" viewBox="0 0 24 24" fill="none" stroke="currentColor" stroke-width="2" stroke-linecap="round" stroke-linejoin="round">
  <path d="M14 9.536V7a4 4 0 0 1 4-4h1.5a.5.5 0 0 1 .5.5V5a4 4 0 0 1-4 4 4 4 0 0 0-4 4c0 2 1 3 1 5a5 5 0 0 1-1 3" />
  <path d="M4 9a5 5 0 0 1 8 4 5 5 0 0 1-8-4" />
  <path d="M5 21h14" />
</symbol>
<symbol id="icon-croissant" viewBox="0 0 24 24" fill="none" stroke="currentColor" stroke-width="2" stroke-linecap="round" stroke-linejoin="round">
  <path d="M10.2 18H4.774a1.5 1.5 0 0 1-1.352-.97 11 11 0 0 1 .132-6.487" />
  <path d="M18 10.2V4.774a1.5 1.5 0 0 0-.97-1.352 11 11 0 0 0-6.486.132" />
  <path d="M18 5a4 3 0 0 1 4 3 2 2 0 0 1-2 2 10 10 0 0 0-5.139 1.42" />
  <path d="M5 18a3 4 0 0 0 3 4 2 2 0 0 0 2-2 10 10 0 0 1 1.42-5.14" />
  <path d="M8.709 2.554a10 10 0 0 0-6.155 6.155 1.5 1.5 0 0 0 .676 1.626l9.807 5.42a2 2 0 0 0 2.718-2.718l-5.42-9.807a1.5 1.5 0 0 0-1.626-.676" />
</symbol>
<symbol id="icon-wheat" viewBox="0 0 24 24" fill="none" stroke="currentColor" stroke-width="2" stroke-linecap="round" stroke-linejoin="round">
  <path d="M2 22 16 8" />
  <path d="M3.47 12.53 5 11l1.53 1.53a3.5 3.5 0 0 1 0 4.94L5 19l-1.53-1.53a3.5 3.5 0 0 1 0-4.94Z" />
  <path d="M7.47 8.53 9 7l1.53 1.53a3.5 3.5 0 0 1 0 4.94L9 15l-1.53-1.53a3.5 3.5 0 0 1 0-4.94Z" />
  <path d="M11.47 4.53 13 3l1.53 1.53a3.5 3.5 0 0 1 0 4.94L13 11l-1.53-1.53a3.5 3.5 0 0 1 0-4.94Z" />
  <path d="M20 2h2v2a4 4 0 0 1-4 4h-2V6a4 4 0 0 1 4-4Z" />
  <path d="M11.47 17.47 13 19l-1.53 1.53a3.5 3.5 0 0 1-4.94 0L5 19l1.53-1.53a3.5 3.5 0 0 1 4.94 0Z" />
  <path d="M15.47 13.47 17 15l-1.53 1.53a3.5 3.5 0 0 1-4.94 0L9 15l1.53-1.53a3.5 3.5 0 0 1 4.94 0Z" />
  <path d="M19.47 9.47 21 11l-1.53 1.53a3.5 3.5 0 0 1-4.94 0L13 11l1.53-1.53a3.5 3.5 0 0 1 4.94 0Z" />
</symbol>
<symbol id="icon-egg" viewBox="0 0 24 24" fill="none" stroke="currentColor" stroke-width="2" stroke-linecap="round" stroke-linejoin="round">
  <path d="M12 2C8 2 4 8 4 14a8 8 0 0 0 16 0c0-6-4-12-8-12" />
</symbol>
<symbol id="icon-egg-fried" viewBox="0 0 24 24" fill="none" stroke="currentColor" stroke-width="2" stroke-linecap="round" stroke-linejoin="round">
  <circle cx="11.5" cy="12.5" r="3.5" />
  <path d="M3 8c0-3.5 2.5-6 6.5-6 5 0 4.83 3 7.5 5s5 2 5 6c0 4.5-2.5 6.5-7 6.5-2.5 0-2.5 2.5-6 2.5s-7-2-7-5.5c0-3 1.5-3 1.5-5C3.5 10 3 9 3 8Z" />
</symbol>
<symbol id="icon-beef" viewBox="0 0 24 24" fill="none" stroke="currentColor" stroke-width="2" stroke-linecap="round" stroke-linejoin="round">
  <path d="M16.4 13.7A6.5 6.5 0 1 0 6.28 6.6c-1.1 3.13-.78 3.9-3.18 6.08A3 3 0 0 0 5 18c4 0 8.4-1.8 11.4-4.3" />
  <path d="m18.5 6 2.19 4.5a6.48 6.48 0 0 1-2.29 7.2C15.4 20.2 11 22 7 22a3 3 0 0 1-2.68-1.66L2.4 16.5" />
  <circle cx="12.5" cy="8.5" r="2.5" />
</symbol>
<symbol id="icon-drumstick" viewBox="0 0 24 24" fill="none" stroke="currentColor" stroke-width="2" stroke-linecap="round" stroke-linejoin="round">
  <path d="M15.4 15.63a7.875 6 135 1 1 6.23-6.23 4.5 3.43 135 0 0-6.23 6.23" />
  <path d="m8.29 12.71-2.6 2.6a2.5 2.5 0 1 0-1.65 4.65A2.5 2.5 0 1 0 8.7 18.3l2.59-2.59" />
</symbol>
<symbol id="icon-sandwich" viewBox="0 0 24 24" fill="none" stroke="currentColor" stroke-width="2" stroke-linecap="round" stroke-linejoin="round">
  <path d="m2.37 11.223 8.372-6.777a2 2 0 0 1 2.516 0l8.371 6.777" />
  <path d="M21 15a1 1 0 0 1 1 1v2a1 1 0 0 1-1 1h-5.25" />
  <path d="M3 15a1 1 0 0 0-1 1v2a1 1 0 0 0 1 1h9" />
  <path d="m6.67 15 6.13 4.6a2 2 0 0 0 2.8-.4l3.15-4.2" />
  <rect width="20" height="4" x="2" y="11" rx="1" />
</symbol>
<symbol id="icon-fish" viewBox="0 0 24 24" fill="none" stroke="currentColor" stroke-width="2" stroke-linecap="round" stroke-linejoin="round">
  <path d="M6.5 12c.94-3.46 4.94-6 8.5-6 3.56 0 6.06 2.54 7 6-.94 3.47-3.44 6-7 6s-7.56-2.53-8.5-6Z" />
  <path d="M18 12v.5" />
  <path d="M16 17.93a9.77 9.77 0 0 1 0-11.86" />
  <path d="M7 10.67C7 8 5.58 5.97 2.73 5.5c-1 1.5-1 5 .23 6.5-1.24 1.5-1.24 5-.23 6.5C5.58 18.03 7 16 7 13.33" />
  <path d="M10.46 7.26C10.2 5.88 9.17 4.24 8 3h5.8a2 2 0 0 1 1.98 1.67l.23 1.4" />
  <path d="m16.01 17.93-.23 1.4A2 2 0 0 1 13.8 21H9.5a5.96 5.96 0 0 0 1.49-3.98" />
</symbol>
<symbol id="icon-fish-symbol" viewBox="0 0 24 24" fill="none" stroke="currentColor" stroke-width="2" stroke-linecap="round" stroke-linejoin="round">
  <path d="M2 16s9-15 20-4C11 23 2 8 2 8" />
</symbol>
<symbol id="icon-soup" viewBox="0 0 24 24" fill="none" stroke="currentColor" stroke-width="2" stroke-linecap="round" stroke-linejoin="round">
  <path d="M12 21a9 9 0 0 0 9-9H3a9 9 0 0 0 9 9Z" />
  <path d="M7 21h10" />
  <path d="M19.5 12 22 6" />
  <path d="M16.25 3c.27.1.8.53.75 1.36-.06.83-.93 1.2-1 2.02-.05.78.34 1.24.73 1.62" />
  <path d="M11.25 3c.27.1.8.53.74 1.36-.05.83-.93 1.2-.98 2.02-.06.78.33 1.24.72 1.62" />
  <path d="M6.25 3c.27.1.8.53.75 1.36-.06.83-.93 1.2-1 2.02-.05.78.34 1.24.74 1.62" />
</symbol>
<symbol id="icon-container" viewBox="0 0 24 24" fill="none" stroke="currentColor" stroke-width="2" stroke-linecap="round" stroke-linejoin="round">
  <path d="M22 7.7c0-.6-.4-1.2-.8-1.5l-6.3-3.9a1.72 1.72 0 0 0-1.7 0l-10.3 6c-.5.2-.9.8-.9 1.4v6.6c0 .5.4 1.2.8 1.5l6.3 3.9a1.72 1.72 0 0 0 1.7 0l10.3-6c.5-.3.9-1 .9-1.5Z" />
  <path d="M10 21.9V14L2.1 9.1" />
  <path d="m10 14 11.9-6.9" />
  <path d="M14 19.8v-8.1" />
  <path d="M18 17.5V9.4" />
</symbol>
<symbol id="icon-package-2" viewBox="0 0 24 24" fill="none" stroke="currentColor" stroke-width="2" stroke-linecap="round" stroke-linejoin="round">
  <path d="M12 3v6" />
  <path d="M16.76 3a2 2 0 0 1 1.8 1.1l2.23 4.479a2 2 0 0 1 .21.891V19a2 2 0 0 1-2 2H5a2 2 0 0 1-2-2V9.472a2 2 0 0 1 .211-.894L5.45 4.1A2 2 0 0 1 7.24 3z" />
  <path d="M3.054 9.013h17.893" />
</symbol>
<symbol id="icon-cookie" viewBox="0 0 24 24" fill="none" stroke="currentColor" stroke-width="2" stroke-linecap="round" stroke-linejoin="round">
  <path d="M12 2a10 10 0 1 0 10 10 4 4 0 0 1-5-5 4 4 0 0 1-5-5" />
  <path d="M8.5 8.5v.01" />
  <path d="M16 15.5v.01" />
  <path d="M12 12v.01" />
  <path d="M11 17v.01" />
  <path d="M7 14v.01" />
</symbol>
<symbol id="icon-cake" viewBox="0 0 24 24" fill="none" stroke="currentColor" stroke-width="2" stroke-linecap="round" stroke-linejoin="round">
  <path d="M20 21v-8a2 2 0 0 0-2-2H6a2 2 0 0 0-2 2v8" />
  <path d="M4 16s.5-1 2-1 2.5 2 4 2 2.5-2 4-2 2.5 2 4 2 2-1 2-1" />
  <path d="M2 21h20" />
  <path d="M7 8v3" />
  <path d="M12 8v3" />
  <path d="M17 8v3" />
  <path d="M7 4h.01" />
  <path d="M12 4h.01" />
  <path d="M17 4h.01" />
</symbol>
<symbol id="icon-cake-slice" viewBox="0 0 24 24" fill="none" stroke="currentColor" stroke-width="2" stroke-linecap="round" stroke-linejoin="round">
  <path d="M16 13H3" />
  <path d="M16 17H3" />
  <path d="m7.2 7.9-3.388 2.5A2 2 0 0 0 3 12.01V20a1 1 0 0 0 1 1h16a1 1 0 0 0 1-1v-8.654c0-2-2.44-6.026-6.44-8.026a1 1 0 0 0-1.082.057L10.4 5.6" />
  <circle cx="9" cy="7" r="2" />
</symbol>
<symbol id="icon-candy" viewBox="0 0 24 24" fill="none" stroke="currentColor" stroke-width="2" stroke-linecap="round" stroke-linejoin="round">
  <path d="M10 7v10.9" />
  <path d="M14 6.1V17" />
  <path d="M16 7V3a1 1 0 0 1 1.707-.707 2.5 2.5 0 0 0 2.152.717 1 1 0 0 1 1.131 1.131 2.5 2.5 0 0 0 .717 2.152A1 1 0 0 1 21 8h-4" />
  <path d="M16.536 7.465a5 5 0 0 0-7.072 0l-2 2a5 5 0 0 0 0 7.07 5 5 0 0 0 7.072 0l2-2a5 5 0 0 0 0-7.07" />
  <path d="M8 17v4a1 1 0 0 1-1.707.707 2.5 2.5 0 0 0-2.152-.717 1 1 0 0 1-1.131-1.131 2.5 2.5 0 0 0-.717-2.152A1 1 0 0 1 3 16h4" />
</symbol>
<symbol id="icon-candy-cane" viewBox="0 0 24 24" fill="none" stroke="currentColor" stroke-width="2" stroke-linecap="round" stroke-linejoin="round">
  <path d="m10.8 5 2.111 4.223" />
  <path d="M17.75 7 15 2.1" />
  <path d="m4.874 14.647 2.12 4.24" />
  <path d="M5.7 21a2 2 0 0 1-3.5-2l8.6-14a6 6 0 0 1 10.4 6 2 2 0 1 1-3.464-2 2 2 0 1 0-3.464-2z" />
  <path d="m7.906 9.712 2.005 4.411" />
</symbol>
<symbol id="icon-donut" viewBox="0 0 24 24" fill="none" stroke="currentColor" stroke-width="2" stroke-linecap="round" stroke-linejoin="round">
  <path d="M20.5 10a2.5 2.5 0 0 1-2.4-3H18a2.95 2.95 0 0 1-2.6-4.4 10 10 0 1 0 6.3 7.1c-.3.2-.8.3-1.2.3" />
  <circle cx="12" cy="12" r="3" />
</symbol>
<symbol id="icon-nut" viewBox="0 0 24 24" fill="none" stroke="currentColor" stroke-width="2" stroke-linecap="round" stroke-linejoin="round">
  <path d="M12 4V2" />
  <path d="M5 10v4a7.004 7.004 0 0 0 5.277 6.787c.412.104.802.292 1.102.592L12 22l.621-.621c.3-.3.69-.488 1.102-.592A7.003 7.003 0 0 0 19 14v-4" />
  <path d="M12 4C8 4 4.5 6 4 8c-.243.97-.919 1.952-2 3 1.31-.082 1.972-.29 3-1 .54.92.982 1.356 2 2 1.452-.647 1.954-1.098 2.5-2 .595.995 1.151 1.427 2.5 2 1.31-.621 1.862-1.058 2.5-2 .629.977 1.162 1.423 2.5 2 1.209-.548 1.68-.967 2-2 1.032.916 1.683 1.157 3 1-1.297-1.036-1.758-2.03-2-3-.5-2-4-4-8-4Z" />
</symbol>
<symbol id="icon-coffee" viewBox="0 0 24 24" fill="none" stroke="currentColor" stroke-width="2" stroke-linecap="round" stroke-linejoin="round">
  <path d="M10 2v2" />
  <path d="M14 2v2" />
  <path d="M16 8a1 1 0 0 1 1 1v8a4 4 0 0 1-4 4H7a4 4 0 0 1-4-4V9a1 1 0 0 1 1-1h14a4 4 0 1 1 0 8h-1" />
  <path d="M6 2v2" />
</symbol>
<symbol id="icon-cup-soda" viewBox="0 0 24 24" fill="none" stroke="currentColor" stroke-width="2" stroke-linecap="round" stroke-linejoin="round">
  <path d="m6 8 1.75 12.28a2 2 0 0 0 2 1.72h4.54a2 2 0 0 0 2-1.72L18 8" />
  <path d="M5 8h14" />
  <path d="M7 15a6.47 6.47 0 0 1 5 0 6.47 6.47 0 0 0 5 0" />
  <path d="m12 8 1-6h2" />
</symbol>
<symbol id="icon-wine" viewBox="0 0 24 24" fill="none" stroke="currentColor" stroke-width="2" stroke-linecap="round" stroke-linejoin="round">
  <path d="M8 22h8" />
  <path d="M7 10h10" />
  <path d="M12 15v7" />
  <path d="M12 15a5 5 0 0 0 5-5c0-2-.5-4-2-8H9c-1.5 4-2 6-2 8a5 5 0 0 0 5 5Z" />
</symbol>
<symbol id="icon-beer" viewBox="0 0 24 24" fill="none" stroke="currentColor" stroke-width="2" stroke-linecap="round" stroke-linejoin="round">
  <path d="M17 11h1a3 3 0 0 1 0 6h-1" />
  <path d="M9 12v6" />
  <path d="M13 12v6" />
  <path d="M14 7.5c-1 0-1.44.5-3 .5s-2-.5-3-.5-1.72.5-2.5.5a2.5 2.5 0 0 1 0-5c.78 0 1.57.5 2.5.5S9.44 2 11 2s2 1.5 3 1.5 1.72-.5 2.5-.5a2.5 2.5 0 0 1 0 5c-.78 0-1.5-.5-2.5-.5Z" />
  <path d="M5 8v12a2 2 0 0 0 2 2h8a2 2 0 0 0 2-2V8" />
</symbol>
<symbol id="icon-milk" viewBox="0 0 24 24" fill="none" stroke="currentColor" stroke-width="2" stroke-linecap="round" stroke-linejoin="round">
  <path d="M8 2h8" />
  <path d="M9 2v2.789a4 4 0 0 1-.672 2.219l-.656.984A4 4 0 0 0 7 10.212V20a2 2 0 0 0 2 2h6a2 2 0 0 0 2-2v-9.789a4 4 0 0 0-.672-2.219l-.656-.984A4 4 0 0 1 15 4.788V2" />
  <path d="M7 15a6.472 6.472 0 0 1 5 0 6.47 6.47 0 0 0 5 0" />
</symbol>
<symbol id="icon-droplet" viewBox="0 0 24 24" fill="none" stroke="currentColor" stroke-width="2" stroke-linecap="round" stroke-linejoin="round">
  <path d="M12 22a7 7 0 0 0 7-7c0-2-1-3.9-3-5.5s-3.5-4-4-6.5c-.5 2.5-2 4.9-4 6.5C6 11.1 5 13 5 15a7 7 0 0 0 7 7z" />
</symbol>
<symbol id="icon-spray-can" viewBox="0 0 24 24" fill="none" stroke="currentColor" stroke-width="2" stroke-linecap="round" stroke-linejoin="round">
  <path d="M3 3h.01" />
  <path d="M7 5h.01" />
  <path d="M11 7h.01" />
  <path d="M3 7h.01" />
  <path d="M7 9h.01" />
  <path d="M3 11h.01" />
  <rect width="4" height="4" x="15" y="5" />
  <path d="m19 9 2 2v10c0 .6-.4 1-1 1h-6c-.6 0-1-.4-1-1V11l2-2" />
  <path d="m13 14 8-2" />
  <path d="m13 19 8-2" />
</symbol>
<symbol id="icon-waves-ladder" viewBox="0 0 24 24" fill="none" stroke="currentColor" stroke-width="2" stroke-linecap="round" stroke-linejoin="round">
  <path d="M19 5a2 2 0 0 0-2 2v11" />
  <path d="M2 18c.6.5 1.2 1 2.5 1 2.5 0 2.5-2 5-2 2.6 0 2.4 2 5 2 2.5 0 2.5-2 5-2 1.3 0 1.9.5 2.5 1" />
  <path d="M7 13h10" />
  <path d="M7 9h10" />
  <path d="M9 5a2 2 0 0 0-2 2v11" />
</symbol>
<symbol id="icon-shower-head" viewBox="0 0 24 24" fill="none" stroke="currentColor" stroke-width="2" stroke-linecap="round" stroke-linejoin="round">
  <path d="m4 4 2.5 2.5" />
  <path d="M13.5 6.5a4.95 4.95 0 0 0-7 7" />
  <path d="M15 5 5 15" />
  <path d="M14 17v.01" />
  <path d="M10 16v.01" />
  <path d="M13 13v.01" />
  <path d="M16 10v.01" />
  <path d="M11 20v.01" />
  <path d="M17 14v.01" />
  <path d="M20 11v.01" />
</symbol>
<symbol id="icon-toilet" viewBox="0 0 24 24" fill="none" stroke="currentColor" stroke-width="2" stroke-linecap="round" stroke-linejoin="round">
  <path d="M7 12h13a1 1 0 0 1 1 1 5 5 0 0 1-5 5h-.598a.5.5 0 0 0-.424.765l1.544 2.47a.5.5 0 0 1-.424.765H5.402a.5.5 0 0 1-.424-.765L7 18" />
  <path d="M8 18a5 5 0 0 1-5-5V4a2 2 0 0 1 2-2h8a2 2 0 0 1 2 2v8" />
</symbol>
<symbol id="icon-h-trash" viewBox="0 0 24 24" fill="none" stroke="currentColor" stroke-width="1.5">
  <path stroke-linecap="round" stroke-linejoin="round" d="m14.74 9-.346 9m-4.788 0L9.26 9m9.968-3.21c.342.052.682.107 1.022.166m-1.022-.165L18.16 19.673a2.25 2.25 0 0 1-2.244 2.077H8.084a2.25 2.25 0 0 1-2.244-2.077L4.772 5.79m14.456 0a48.108 48.108 0 0 0-3.478-.397m-12 .562c.34-.059.68-.114 1.022-.165m0 0a48.11 48.11 0 0 1 3.478-.397m7.5 0v-.916c0-1.18-.91-2.164-2.09-2.201a51.964 51.964 0 0 0-3.32 0c-1.18.037-2.09 1.022-2.09 2.201v.916m7.5 0a48.667 48.667 0 0 0-7.5 0"/>
</symbol>
<symbol id="icon-flame" viewBox="0 0 24 24" fill="none" stroke="currentColor" stroke-width="2" stroke-linecap="round" stroke-linejoin="round">
  <path d="M12 3q1 4 4 6.5t3 5.5a1 1 0 0 1-14 0 5 5 0 0 1 1-3 1 1 0 0 0 5 0c0-2-1.5-3-1.5-5q0-2 2.5-4" />
</symbol>
<symbol id="icon-flame-kindling" viewBox="0 0 24 24" fill="none" stroke="currentColor" stroke-width="2" stroke-linecap="round" stroke-linejoin="round">
  <path d="M12 2c1 3 2.5 3.5 3.5 4.5A5 5 0 0 1 17 10a5 5 0 1 1-10 0c0-.3 0-.6.1-.9a2 2 0 1 0 3.3-2C8 4.5 11 2 12 2Z" />
  <path d="m5 22 14-4" />
  <path d="m5 18 14 4" />
</symbol>
<symbol id="icon-pill" viewBox="0 0 24 24" fill="none" stroke="currentColor" stroke-width="2" stroke-linecap="round" stroke-linejoin="round">
  <path d="m10.5 20.5 10-10a4.95 4.95 0 1 0-7-7l-10 10a4.95 4.95 0 1 0 7 7Z" />
  <path d="m8.5 8.5 7 7" />
</symbol>
<symbol id="icon-bandage" viewBox="0 0 24 24" fill="none" stroke="currentColor" stroke-width="2" stroke-linecap="round" stroke-linejoin="round">
  <path d="M10 10.01h.01" />
  <path d="M10 14.01h.01" />
  <path d="M14 10.01h.01" />
  <path d="M14 14.01h.01" />
  <path d="M18 6v12" />
  <path d="M6 6v12" />
  <rect x="2" y="6" width="20" height="12" rx="2" />
</symbol>
<symbol id="icon-stethoscope" viewBox="0 0 24 24" fill="none" stroke="currentColor" stroke-width="2" stroke-linecap="round" stroke-linejoin="round">
  <path d="M11 2v2" />
  <path d="M5 2v2" />
  <path d="M5 3H4a2 2 0 0 0-2 2v4a6 6 0 0 0 12 0V5a2 2 0 0 0-2-2h-1" />
  <path d="M8 15a6 6 0 0 0 12 0v-3" />
  <circle cx="20" cy="10" r="2" />
</symbol>
<symbol id="icon-thermometer" viewBox="0 0 24 24" fill="none" stroke="currentColor" stroke-width="2" stroke-linecap="round" stroke-linejoin="round">
  <path d="M14 4v10.54a4 4 0 1 1-4 0V4a2 2 0 0 1 4 0Z" />
</symbol>
<symbol id="icon-baby" viewBox="0 0 24 24" fill="none" stroke="currentColor" stroke-width="2" stroke-linecap="round" stroke-linejoin="round">
  <path d="M10 16c.5.3 1.2.5 2 .5s1.5-.2 2-.5" />
  <path d="M15 12h.01" />
  <path d="M19.38 6.813A9 9 0 0 1 20.8 10.2a2 2 0 0 1 0 3.6 9 9 0 0 1-17.6 0 2 2 0 0 1 0-3.6A9 9 0 0 1 12 3c2 0 3.5 1.1 3.5 2.5s-.9 2.5-2 2.5c-.8 0-1.5-.4-1.5-1" />
  <path d="M9 12h.01" />
</symbol>
<symbol id="icon-toy-brick" viewBox="0 0 24 24" fill="none" stroke="currentColor" stroke-width="2" stroke-linecap="round" stroke-linejoin="round">
  <rect width="18" height="12" x="3" y="8" rx="1" />
  <path d="M10 8V5c0-.6-.4-1-1-1H6a1 1 0 0 0-1 1v3" />
  <path d="M19 8V5c0-.6-.4-1-1-1h-3a1 1 0 0 0-1 1v3" />
</symbol>
<symbol id="icon-dog" viewBox="0 0 24 24" fill="none" stroke="currentColor" stroke-width="2" stroke-linecap="round" stroke-linejoin="round">
  <path d="M11.25 16.25h1.5L12 17z" />
  <path d="M16 14v.5" />
  <path d="M4.42 11.247A13.152 13.152 0 0 0 4 14.556C4 18.728 7.582 21 12 21s8-2.272 8-6.444a11.702 11.702 0 0 0-.493-3.309" />
  <path d="M8 14v.5" />
  <path d="M8.5 8.5c-.384 1.05-1.083 2.028-2.344 2.5-1.931.722-3.576-.297-3.656-1-.113-.994 1.177-6.53 4-7 1.923-.321 3.651.845 3.651 2.235A7.497 7.497 0 0 1 14 5.277c0-1.39 1.844-2.598 3.767-2.277 2.823.47 4.113 6.006 4 7-.08.703-1.725 1.722-3.656 1-1.261-.472-1.855-1.45-2.239-2.5" />
</symbol>
<symbol id="icon-cat" viewBox="0 0 24 24" fill="none" stroke="currentColor" stroke-width="2" stroke-linecap="round" stroke-linejoin="round">
  <path d="M12 5c.67 0 1.35.09 2 .26 1.78-2 5.03-2.84 6.42-2.26 1.4.58-.42 7-.42 7 .57 1.07 1 2.24 1 3.44C21 17.9 16.97 21 12 21s-9-3-9-7.56c0-1.25.5-2.4 1-3.44 0 0-1.89-6.42-.5-7 1.39-.58 4.72.23 6.5 2.23A9.04 9.04 0 0 1 12 5Z" />
  <path d="M8 14v.5" />
  <path d="M16 14v.5" />
  <path d="M11.25 16.25h1.5L12 17l-.75-.75Z" />
</symbol>
<symbol id="icon-paw-print" viewBox="0 0 24 24" fill="none" stroke="currentColor" stroke-width="2" stroke-linecap="round" stroke-linejoin="round">
  <circle cx="11" cy="4" r="2" />
  <circle cx="18" cy="8" r="2" />
  <circle cx="20" cy="16" r="2" />
  <path d="M9 10a5 5 0 0 1 5 5v3.5a3.5 3.5 0 0 1-6.84 1.045Q6.52 17.48 4.46 16.84A3.5 3.5 0 0 1 5.5 10Z" />
</symbol>
<symbol id="icon-shirt" viewBox="0 0 24 24" fill="none" stroke="currentColor" stroke-width="2" stroke-linecap="round" stroke-linejoin="round">
  <path d="M20.38 3.46 16 2a4 4 0 0 1-8 0L3.62 3.46a2 2 0 0 0-1.34 2.23l.58 3.47a1 1 0 0 0 .99.84H6v10c0 1.1.9 2 2 2h8a2 2 0 0 0 2-2V10h2.15a1 1 0 0 0 .99-.84l.58-3.47a2 2 0 0 0-1.34-2.23z" />
</symbol>
<symbol id="icon-footprints" viewBox="0 0 24 24" fill="none" stroke="currentColor" stroke-width="2" stroke-linecap="round" stroke-linejoin="round">
  <path d="M4 16v-2.38C4 11.5 2.97 10.5 3 8c.03-2.72 1.49-6 4.5-6C9.37 2 10 3.8 10 5.5c0 3.11-2 5.66-2 8.68V16a2 2 0 1 1-4 0Z" />
  <path d="M20 20v-2.38c0-2.12 1.03-3.12 1-5.62-.03-2.72-1.49-6-4.5-6C14.63 6 14 7.8 14 9.5c0 3.11 2 5.66 2 8.68V20a2 2 0 1 0 4 0Z" />
  <path d="M16 17h4" />
  <path d="M4 13h4" />
</symbol>
<symbol id="icon-h-wrench" viewBox="0 0 24 24" fill="none" stroke="currentColor" stroke-width="1.5">
  <path stroke-linecap="round" stroke-linejoin="round" d="M21.75 6.75a4.5 4.5 0 0 1-4.884 4.484c-1.076-.091-2.264.071-2.95.904l-7.152 8.684a2.548 2.548 0 1 1-3.586-3.586l8.684-7.152c.833-.686.995-1.874.904-2.95a4.5 4.5 0 0 1 6.336-4.486l-3.276 3.276a3.004 3.004 0 0 0 2.25 2.25l3.276-3.276c.256.565.398 1.192.398 1.852Z"/>
  <path stroke-linecap="round" stroke-linejoin="round" d="M4.867 19.125h.008v.008h-.008v-.008Z"/>
</symbol>
<symbol id="icon-hammer" viewBox="0 0 24 24" fill="none" stroke="currentColor" stroke-width="2" stroke-linecap="round" stroke-linejoin="round">
  <path d="m15 12-9.373 9.373a1 1 0 0 1-3.001-3L12 9" />
  <path d="m18 15 4-4" />
  <path d="m21.5 11.5-1.914-1.914A2 2 0 0 1 19 8.172v-.344a2 2 0 0 0-.586-1.414l-1.657-1.657A6 6 0 0 0 12.516 3H9l1.243 1.243A6 6 0 0 1 12 8.485V10l2 2h1.172a2 2 0 0 1 1.414.586L18.5 14.5" />
</symbol>
<symbol id="icon-drill" viewBox="0 0 24 24" fill="none" stroke="currentColor" stroke-width="2" stroke-linecap="round" stroke-linejoin="round">
  <path d="M10 18a1 1 0 0 1 1 1v2a1 1 0 0 1-1 1H5a3 3 0 0 1-3-3 1 1 0 0 1 1-1z" />
  <path d="M13 10H4a2 2 0 0 1-2-2V4a2 2 0 0 1 2-2h9a1 1 0 0 1 1 1v6a1 1 0 0 1-1 1l-.81 3.242a1 1 0 0 1-.97.758H8" />
  <path d="M14 4h3a1 1 0 0 1 1 1v2a1 1 0 0 1-1 1h-3" />
  <path d="M18 6h4" />
  <path d="m5 10-2 8" />
  <path d="m7 18 2-8" />
</symbol>
<symbol id="icon-h-printer" viewBox="0 0 24 24" fill="none" stroke="currentColor" stroke-width="1.5">
  <path stroke-linecap="round" stroke-linejoin="round" d="M6.72 13.829c-.24.03-.48.062-.72.096m.72-.096a42.415 42.415 0 0 1 10.56 0m-10.56 0L6.34 18m10.94-4.171c.24.03.48.062.72.096m-.72-.096L17.66 18m0 0 .229 2.523a1.125 1.125 0 0 1-1.12 1.227H7.231c-.662 0-1.18-.568-1.12-1.227L6.34 18m11.318 0h1.091A2.25 2.25 0 0 0 21 15.75V9.456c0-1.081-.768-2.015-1.837-2.175a48.055 48.055 0 0 0-1.913-.247M6.34 18H5.25A2.25 2.25 0 0 1 3 15.75V9.456c0-1.081.768-2.015 1.837-2.175a48.041 48.041 0 0 1 1.913-.247m10.5 0a48.536 48.536 0 0 0-10.5 0m10.5 0V3.375c0-.621-.504-1.125-1.125-1.125h-8.25c-.621 0-1.125.504-1.125 1.125v3.659M18 10.5h.008v.008H18V10.5Zm-3 0h.008v.008H15V10.5Z"/>
</symbol>
<symbol id="icon-h-device-phone-mobile" viewBox="0 0 24 24" fill="none" stroke="currentColor" stroke-width="1.5">
  <path stroke-linecap="round" stroke-linejoin="round" d="M10.5 1.5H8.25A2.25 2.25 0 0 0 6 3.75v16.5a2.25 2.25 0 0 0 2.25 2.25h7.5A2.25 2.25 0 0 0 18 20.25V3.75a2.25 2.25 0 0 0-2.25-2.25H13.5m-3 0V3h3V1.5m-3 0h3m-3 18.75h3"/>
</symbol>
<symbol id="icon-h-computer-desktop" viewBox="0 0 24 24" fill="none" stroke="currentColor" stroke-width="1.5">
  <path stroke-linecap="round" stroke-linejoin="round" d="M9 17.25v1.007a3 3 0 0 1-.879 2.122L7.5 21h9l-.621-.621A3 3 0 0 1 15 18.257V17.25m6-12V15a2.25 2.25 0 0 1-2.25 2.25H5.25A2.25 2.25 0 0 1 3 15V5.25m18 0A2.25 2.25 0 0 0 18.75 3H5.25A2.25 2.25 0 0 0 3 5.25m18 0V12a2.25 2.25 0 0 1-2.25 2.25H5.25A2.25 2.25 0 0 1 3 12V5.25"/>
</symbol>
<symbol id="icon-plug" viewBox="0 0 24 24" fill="none" stroke="currentColor" stroke-width="2" stroke-linecap="round" stroke-linejoin="round">
  <path d="M12 22v-5" />
  <path d="M15 8V2" />
  <path d="M17 8a1 1 0 0 1 1 1v4a4 4 0 0 1-4 4h-4a4 4 0 0 1-4-4V9a1 1 0 0 1 1-1z" />
  <path d="M9 8V2" />
</symbol>
<symbol id="icon-h-battery-100" viewBox="0 0 24 24" fill="none" stroke="currentColor" stroke-width="1.5">
  <path stroke-linecap="round" stroke-linejoin="round" d="M21 10.5h.375c.621 0 1.125.504 1.125 1.125v2.25c0 .621-.504 1.125-1.125 1.125H21M4.5 10.5H18V15H4.5v-4.5ZM3.75 18h15A2.25 2.25 0 0 0 21 15.75v-6a2.25 2.25 0 0 0-2.25-2.25h-15A2.25 2.25 0 0 0 1.5 9.75v6A2.25 2.25 0 0 0 3.75 18Z"/>
</symbol>
<symbol id="icon-h-light-bulb" viewBox="0 0 24 24" fill="none" stroke="currentColor" stroke-width="1.5">
  <path stroke-linecap="round" stroke-linejoin="round" d="M12 18v-5.25m0 0a6.01 6.01 0 0 0 1.5-.189m-1.5.189a6.01 6.01 0 0 1-1.5-.189m3.75 7.478a12.06 12.06 0 0 1-4.5 0m3.75 2.383a14.406 14.406 0 0 1-3 0M14.25 18v-.192c0-.983.658-1.823 1.508-2.316a7.5 7.5 0 1 0-7.517 0c.85.493 1.509 1.333 1.509 2.316V18"/>
</symbol>
<symbol id="icon-h-camera" viewBox="0 0 24 24" fill="none" stroke="currentColor" stroke-width="1.5">
  <path stroke-linecap="round" stroke-linejoin="round" d="M6.827 6.175A2.31 2.31 0 0 1 5.186 7.23c-.38.054-.757.112-1.134.175C2.999 7.58 2.25 8.507 2.25 9.574V18a2.25 2.25 0 0 0 2.25 2.25h15A2.25 2.25 0 0 0 21.75 18V9.574c0-1.067-.75-1.994-1.802-2.169a47.865 47.865 0 0 0-1.134-.175 2.31 2.31 0 0 1-1.64-1.055l-.822-1.316a2.192 2.192 0 0 0-1.736-1.039 48.774 48.774 0 0 0-5.232 0 2.192 2.192 0 0 0-1.736 1.039l-.821 1.316Z"/>
  <path stroke-linecap="round" stroke-linejoin="round" d="M16.5 12.75a4.5 4.5 0 1 1-9 0 4.5 4.5 0 0 1 9 0ZM18.75 10.5h.008v.008h-.008V10.5Z"/>
</symbol>
<symbol id="icon-headphones" viewBox="0 0 24 24" fill="none" stroke="currentColor" stroke-width="2" stroke-linecap="round" stroke-linejoin="round">
  <path d="M3 14h3a2 2 0 0 1 2 2v3a2 2 0 0 1-2 2H5a2 2 0 0 1-2-2v-7a9 9 0 0 1 18 0v7a2 2 0 0 1-2 2h-1a2 2 0 0 1-2-2v-3a2 2 0 0 1 2-2h3" />
</symbol>
<symbol id="icon-watch" viewBox="0 0 24 24" fill="none" stroke="currentColor" stroke-width="2" stroke-linecap="round" stroke-linejoin="round">
  <path d="M12 10v2.2l1.6 1" />
  <path d="m16.13 7.66-.81-4.05a2 2 0 0 0-2-1.61h-2.68a2 2 0 0 0-2 1.61l-.78 4.05" />
  <path d="m7.88 16.36.8 4a2 2 0 0 0 2 1.61h2.72a2 2 0 0 0 2-1.61l.81-4.05" />
  <circle cx="12" cy="12" r="6" />
</symbol>
<symbol id="icon-flashlight" viewBox="0 0 24 24" fill="none" stroke="currentColor" stroke-width="2" stroke-linecap="round" stroke-linejoin="round">
  <path d="M12 13v1" />
  <path d="M17 2a1 1 0 0 1 1 1v4a3 3 0 0 1-.6 1.8l-.6.8A4 4 0 0 0 16 12v8a2 2 0 0 1-2 2H10a2 2 0 0 1-2-2v-8a4 4 0 0 0-.8-2.4l-.6-.8A3 3 0 0 1 6 7V3a1 1 0 0 1 1-1z" />
  <path d="M6 6h12" />
</symbol>
<symbol id="icon-h-key" viewBox="0 0 24 24" fill="none" stroke="currentColor" stroke-width="1.5">
  <path stroke-linecap="round" stroke-linejoin="round" d="M15.75 5.25a3 3 0 0 1 3 3m3 0a6 6 0 0 1-7.029 5.912c-.563-.097-1.159.026-1.563.43L10.5 17.25H8.25v2.25H6v2.25H2.25v-2.818c0-.597.237-1.17.659-1.591l6.499-6.499c.404-.404.527-1 .43-1.563A6 6 0 1 1 21.75 8.25Z"/>
</symbol>
<symbol id="icon-notebook" viewBox="0 0 24 24" fill="none" stroke="currentColor" stroke-width="2" stroke-linecap="round" stroke-linejoin="round">
  <path d="M2 6h4" />
  <path d="M2 10h4" />
  <path d="M2 14h4" />
  <path d="M2 18h4" />
  <rect width="16" height="20" x="4" y="2" rx="2" />
  <path d="M16 2v20" />
</symbol>
<symbol id="icon-h-pencil" viewBox="0 0 24 24" fill="none" stroke="currentColor" stroke-width="1.5">
  <path stroke-linecap="round" stroke-linejoin="round" d="m16.862 4.487 1.687-1.688a1.875 1.875 0 1 1 2.652 2.652L6.832 19.82a4.5 4.5 0 0 1-1.897 1.13l-2.685.8.8-2.685a4.5 4.5 0 0 1 1.13-1.897L16.863 4.487Zm0 0L19.5 7.125"/>
</symbol>
<symbol id="icon-h-paper-clip" viewBox="0 0 24 24" fill="none" stroke="currentColor" stroke-width="1.5">
  <path stroke-linecap="round" stroke-linejoin="round" d="m18.375 12.739-7.693 7.693a4.5 4.5 0 0 1-6.364-6.364l10.94-10.94A3 3 0 1 1 19.5 7.372L8.552 18.32m.009-.01-.01.01m5.699-9.941-7.81 7.81a1.5 1.5 0 0 0 2.112 2.13"/>
</symbol>
<symbol id="icon-h-scissors" viewBox="0 0 24 24" fill="none" stroke="currentColor" stroke-width="1.5">
  <path stroke-linecap="round" stroke-linejoin="round" d="m7.848 8.25 1.536.887M7.848 8.25a3 3 0 1 1-5.196-3 3 3 0 0 1 5.196 3Zm1.536.887a2.165 2.165 0 0 1 1.083 1.839c.005.351.054.695.14 1.024M9.384 9.137l2.077 1.199M7.848 15.75l1.536-.887m-1.536.887a3 3 0 1 1-5.196 3 3 3 0 0 1 5.196-3Zm1.536-.887a2.165 2.165 0 0 0 1.083-1.838c.005-.352.054-.695.14-1.025m-1.223 2.863 2.077-1.199m0-3.328a4.323 4.323 0 0 1 2.068-1.379l5.325-1.628a4.5 4.5 0 0 1 2.48-.044l.803.215-7.794 4.5m-2.882-1.664A4.33 4.33 0 0 0 10.607 12m3.736 0 7.794 4.5-.802.215a4.5 4.5 0 0 1-2.48-.043l-5.326-1.629a4.324 4.324 0 0 1-2.068-1.379M14.343 12l-2.882 1.664"/>
</symbol>
<symbol id="icon-h-book-open" viewBox="0 0 24 24" fill="none" stroke="currentColor" stroke-width="1.5">
  <path stroke-linecap="round" stroke-linejoin="round" d="M12 6.042A8.967 8.967 0 0 0 6 3.75c-1.052 0-2.062.18-3 .512v14.25A8.987 8.987 0 0 1 6 18c2.305 0 4.408.867 6 2.292m0-14.25a8.966 8.966 0 0 1 6-2.292c1.052 0 2.062.18 3 .512v14.25A8.987 8.987 0 0 0 18 18a8.967 8.967 0 0 0-6 2.292m0-14.25v14.25"/>
</symbol>
<symbol id="icon-flower" viewBox="0 0 24 24" fill="none" stroke="currentColor" stroke-width="2" stroke-linecap="round" stroke-linejoin="round">
  <circle cx="12" cy="12" r="3" />
  <path d="M12 16.5A4.5 4.5 0 1 1 7.5 12 4.5 4.5 0 1 1 12 7.5a4.5 4.5 0 1 1 4.5 4.5 4.5 4.5 0 1 1-4.5 4.5" />
  <path d="M12 7.5V9" />
  <path d="M7.5 12H9" />
  <path d="M16.5 12H15" />
  <path d="M12 16.5V15" />
  <path d="m8 8 1.88 1.88" />
  <path d="M14.12 9.88 16 8" />
  <path d="m8 16 1.88-1.88" />
  <path d="M14.12 14.12 16 16" />
</symbol>
<symbol id="icon-clover" viewBox="0 0 24 24" fill="none" stroke="currentColor" stroke-width="2" stroke-linecap="round" stroke-linejoin="round">
  <path d="M16.17 7.83 2 22" />
  <path d="M4.02 12a2.827 2.827 0 1 1 3.81-4.17A2.827 2.827 0 1 1 12 4.02a2.827 2.827 0 1 1 4.17 3.81A2.827 2.827 0 1 1 19.98 12a2.827 2.827 0 1 1-3.81 4.17A2.827 2.827 0 1 1 12 19.98a2.827 2.827 0 1 1-4.17-3.81A1 1 0 1 1 4 12" />
  <path d="m7.83 7.83 8.34 8.34" />
</symbol>
<symbol id="icon-trees" viewBox="0 0 24 24" fill="none" stroke="currentColor" stroke-width="2" stroke-linecap="round" stroke-linejoin="round">
  <path d="M10 10v.2A3 3 0 0 1 8.9 16H5a3 3 0 0 1-1-5.8V10a3 3 0 0 1 6 0Z" />
  <path d="M7 16v6" />
  <path d="M13 19v3" />
  <path d="M12 19h8.3a1 1 0 0 0 .7-1.7L18 14h.3a1 1 0 0 0 .7-1.7L16 9h.2a1 1 0 0 0 .8-1.7L13 3l-1.4 1.5" />
</symbol>
<symbol id="icon-volleyball" viewBox="0 0 24 24" fill="none" stroke="currentColor" stroke-width="2" stroke-linecap="round" stroke-linejoin="round">
  <path d="M11 7a16 16 20 0 1 10.98 4.362" />
  <path d="M12 12a13 13 0 0 1-8.66 5" />
  <path d="M16.83 13.634a16 16 0 0 1-9.267 7.328" />
  <path d="M20.66 17A13 13 0 0 0 12 12a13 13 0 0 1 0-10" />
  <path d="M8.17 15.366a16 16 0 0 1-1.713-11.69" />
  <circle cx="12" cy="12" r="10" />
</symbol>
<symbol id="icon-bike" viewBox="0 0 24 24" fill="none" stroke="currentColor" stroke-width="2" stroke-linecap="round" stroke-linejoin="round">
  <circle cx="18.5" cy="17.5" r="3.5" />
  <circle cx="5.5" cy="17.5" r="3.5" />
  <circle cx="15" cy="5" r="1" />
  <path d="M12 17.5V14l-3-3 4-3 2 3h2" />
</symbol>
<symbol id="icon-gamepad-2" viewBox="0 0 24 24" fill="none" stroke="currentColor" stroke-width="2" stroke-linecap="round" stroke-linejoin="round">
  <line x1="6" x2="10" y1="11" y2="11" />
  <line x1="8" x2="8" y1="9" y2="13" />
  <line x1="15" x2="15.01" y1="12" y2="12" />
  <line x1="18" x2="18.01" y1="10" y2="10" />
  <path d="M17.32 5H6.68a4 4 0 0 0-3.978 3.59c-.006.052-.01.101-.017.152C2.604 9.416 2 14.456 2 16a3 3 0 0 0 3 3c1 0 1.5-.5 2-1l1.414-1.414A2 2 0 0 1 9.828 16h4.344a2 2 0 0 1 1.414.586L17 18c.5.5 1 1 2 1a3 3 0 0 0 3-3c0-1.545-.604-6.584-.685-7.258-.007-.05-.011-.1-.017-.151A4 4 0 0 0 17.32 5z" />
</symbol>
<symbol id="icon-dices" viewBox="0 0 24 24" fill="none" stroke="currentColor" stroke-width="2" stroke-linecap="round" stroke-linejoin="round">
  <rect width="12" height="12" x="2" y="10" rx="2" ry="2" />
  <path d="m17.92 14 3.5-3.5a2.24 2.24 0 0 0 0-3l-5-4.92a2.24 2.24 0 0 0-3 0L10 6" />
  <path d="M6 18h.01" />
  <path d="M10 14h.01" />
  <path d="M15 6h.01" />
  <path d="M18 9h.01" />
</symbol>
<symbol id="icon-h-puzzle-piece" viewBox="0 0 24 24" fill="none" stroke="currentColor" stroke-width="1.5">
  <path stroke-linecap="round" stroke-linejoin="round" d="M14.25 6.087c0-.355.186-.676.401-.959.221-.29.349-.634.349-1.003 0-1.036-1.007-1.875-2.25-1.875s-2.25.84-2.25 1.875c0 .369.128.713.349 1.003.215.283.401.604.401.959v0a.64.64 0 0 1-.657.643 48.39 48.39 0 0 1-4.163-.3c.186 1.613.293 3.25.315 4.907a.656.656 0 0 1-.658.663v0c-.355 0-.676-.186-.959-.401a1.647 1.647 0 0 0-1.003-.349c-1.036 0-1.875 1.007-1.875 2.25s.84 2.25 1.875 2.25c.369 0 .713-.128 1.003-.349.283-.215.604-.401.959-.401v0c.31 0 .555.26.532.57a48.039 48.039 0 0 1-.642 5.056c1.518.19 3.058.309 4.616.354a.64.64 0 0 0 .657-.643v0c0-.355-.186-.676-.401-.959a1.647 1.647 0 0 1-.349-1.003c0-1.035 1.008-1.875 2.25-1.875 1.243 0 2.25.84 2.25 1.875 0 .369-.128.713-.349 1.003-.215.283-.4.604-.4.959v0c0 .333.277.599.61.58a48.1 48.1 0 0 0 5.427-.63 48.05 48.05 0 0 0 .582-4.717.532.532 0 0 0-.533-.57v0c-.355 0-.676.186-.959.401-.29.221-.634.349-1.003.349-1.035 0-1.875-1.007-1.875-2.25s.84-2.25 1.875-2.25c.37 0 .713.128 1.003.349.283.215.604.401.96.401v0a.656.656 0 0 0 .658-.663 48.422 48.422 0 0 0-.37-5.36c-1.886.342-3.81.574-5.766.689a.578.578 0 0 1-.61-.58v0Z"/>
</symbol>
<symbol id="icon-car" viewBox="0 0 24 24" fill="none" stroke="currentColor" stroke-width="2" stroke-linecap="round" stroke-linejoin="round">
  <path d="M19 17h2c.6 0 1-.4 1-1v-3c0-.9-.7-1.7-1.5-1.9C18.7 10.6 16 10 16 10s-1.3-1.4-2.2-2.3c-.5-.4-1.1-.7-1.8-.7H5c-.6 0-1.1.4-1.4.9l-1.4 2.9A3.7 3.7 0 0 0 2 12v4c0 .6.4 1 1 1h2" />
  <circle cx="7" cy="17" r="2" />
  <path d="M9 17h6" />
  <circle cx="17" cy="17" r="2" />
</symbol>
<symbol id="icon-fuel" viewBox="0 0 24 24" fill="none" stroke="currentColor" stroke-width="2" stroke-linecap="round" stroke-linejoin="round">
  <path d="M14 13h2a2 2 0 0 1 2 2v2a2 2 0 0 0 4 0v-6.998a2 2 0 0 0-.59-1.42L18 5" />
  <path d="M14 21V5a2 2 0 0 0-2-2H5a2 2 0 0 0-2 2v16" />
  <path d="M2 21h13" />
  <path d="M3 9h11" />
</symbol>
<symbol id="icon-h-gift" viewBox="0 0 24 24" fill="none" stroke="currentColor" stroke-width="1.5">
  <path stroke-linecap="round" stroke-linejoin="round" d="M21 11.25v8.25a1.5 1.5 0 0 1-1.5 1.5H5.25a1.5 1.5 0 0 1-1.5-1.5v-8.25M12 4.875A2.625 2.625 0 1 0 9.375 7.5H12m0-2.625V7.5m0-2.625A2.625 2.625 0 1 1 14.625 7.5H12m0 0V21m-8.625-9.75h18c.621 0 1.125-.504 1.125-1.125v-1.5c0-.621-.504-1.125-1.125-1.125h-18c-.621 0-1.125.504-1.125 1.125v1.5c0 .621.504 1.125 1.125 1.125Z"/>
</symbol>
<symbol id="icon-luggage" viewBox="0 0 24 24" fill="none" stroke="currentColor" stroke-width="2" stroke-linecap="round" stroke-linejoin="round">
  <path d="M6 20a2 2 0 0 1-2-2V8a2 2 0 0 1 2-2h12a2 2 0 0 1 2 2v10a2 2 0 0 1-2 2" />
  <path d="M8 18V4a2 2 0 0 1 2-2h4a2 2 0 0 1 2 2v14" />
  <path d="M10 20h4" />
  <circle cx="16" cy="20" r="2" />
  <circle cx="8" cy="20" r="2" />
</symbol>
<symbol id="icon-party-popper" viewBox="0 0 24 24" fill="none" stroke="currentColor" stroke-width="2" stroke-linecap="round" stroke-linejoin="round">
  <path d="M5.8 11.3 2 22l10.7-3.79" />
  <path d="M4 3h.01" />
  <path d="M22 8h.01" />
  <path d="M15 2h.01" />
  <path d="M22 20h.01" />
  <path d="m22 2-2.24.75a2.9 2.9 0 0 0-1.96 3.12c.1.86-.57 1.63-1.45 1.63h-.38c-.86 0-1.6.6-1.76 1.44L14 10" />
  <path d="m22 13-.82-.33c-.86-.34-1.82.2-1.98 1.11c-.11.7-.72 1.22-1.43 1.22H17" />
  <path d="m11 2 .33.82c.34.86-.2 1.82-1.11 1.98C9.52 4.9 9 5.52 9 6.23V7" />
  <path d="M11 13c1.93 1.93 2.83 4.17 2 5-.83.83-3.07-.07-5-2-1.93-1.93-2.83-4.17-2-5 .83-.83 3.07.07 5 2Z" />
</symbol>
<symbol id="icon-h-archive-box" viewBox="0 0 24 24" fill="none" stroke="currentColor" stroke-width="1.5">
  <path stroke-linecap="round" stroke-linejoin="round" d="m20.25 7.5-.625 10.632a2.25 2.25 0 0 1-2.247 2.118H6.622a2.25 2.25 0 0 1-2.247-2.118L3.75 7.5M10 11.25h4M3.375 7.5h17.25c.621 0 1.125-.504 1.125-1.125v-1.5c0-.621-.504-1.125-1.125-1.125H3.375c-.621 0-1.125.504-1.125 1.125v1.5c0 .621.504 1.125 1.125 1.125Z"/>
</symbol>
<symbol id="icon-h-shopping-cart" viewBox="0 0 24 24" fill="none" stroke="currentColor" stroke-width="1.5">
  <path stroke-linecap="round" stroke-linejoin="round" d="M2.25 3h1.386c.51 0 .955.343 1.087.835l.383 1.437M7.5 14.25a3 3 0 0 0-3 3h15.75m-12.75-3h11.218c1.121-2.3 2.1-4.684 2.924-7.138a60.114 60.114 0 0 0-16.536-1.84M7.5 14.25 5.106 5.272M6 20.25a.75.75 0 1 1-1.5 0 .75.75 0 0 1 1.5 0Zm12.75 0a.75.75 0 1 1-1.5 0 .75.75 0 0 1 1.5 0Z"/>
</symbol>
<symbol id="icon-h-folder" viewBox="0 0 24 24" fill="none" stroke="currentColor" stroke-width="1.5">
  <path stroke-linecap="round" stroke-linejoin="round" d="M2.25 12.75V12A2.25 2.25 0 0 1 4.5 9.75h15A2.25 2.25 0 0 1 21.75 12v.75m-8.69-6.44-2.12-2.12a1.5 1.5 0 0 0-1.061-.44H4.5A2.25 2.25 0 0 0 2.25 6v12a2.25 2.25 0 0 0 2.25 2.25h15A2.25 2.25 0 0 0 21.75 18V9a2.25 2.25 0 0 0-2.25-2.25h-5.379a1.5 1.5 0 0 1-1.06-.44Z"/>
</symbol>
<symbol id="icon-h-home" viewBox="0 0 24 24" fill="none" stroke="currentColor" stroke-width="1.5">
  <path stroke-linecap="round" stroke-linejoin="round" d="m2.25 12 8.954-8.955c.44-.439 1.152-.439 1.591 0L21.75 12M4.5 9.75v10.125c0 .621.504 1.125 1.125 1.125H9.75v-4.875c0-.621.504-1.125 1.125-1.125h2.25c.621 0 1.125.504 1.125 1.125V21h4.125c.621 0 1.125-.504 1.125-1.125V9.75M8.25 21h8.25"/>
</symbol>
<symbol id="icon-h-clipboard-document-list" viewBox="0 0 24 24" fill="none" stroke="currentColor" stroke-width="1.5">
  <path stroke-linecap="round" stroke-linejoin="round" d="M9 12h3.75M9 15h3.75M9 18h3.75m3 .75H18a2.25 2.25 0 0 0 2.25-2.25V6.108c0-1.135-.845-2.098-1.976-2.192a48.424 48.424 0 0 0-1.123-.08m-5.801 0c-.065.21-.1.433-.1.664 0 .414.336.75.75.75h4.5a.75.75 0 0 0 .75-.75 2.25 2.25 0 0 0-.1-.664m-5.8 0A2.251 2.251 0 0 1 13.5 2.25H15c1.012 0 1.867.668 2.15 1.586m-5.8 0c-.376.023-.75.05-1.124.08C9.095 4.01 8.25 4.973 8.25 6.108V8.25m0 0H4.875c-.621 0-1.125.504-1.125 1.125v11.25c0 .621.504 1.125 1.125 1.125h9.75c.621 0 1.125-.504 1.125-1.125V9.375c0-.621-.504-1.125-1.125-1.125H8.25ZM6.75 12h.008v.008H6.75V12Zm0 3h.008v.008H6.75V15Zm0 3h.008v.008H6.75V18Z"/>
</symbol>
<symbol id="icon-popcorn" viewBox="0 0 24 24" fill="none" stroke="currentColor" stroke-width="2" stroke-linecap="round" stroke-linejoin="round">
  <path d="M18 8a2 2 0 0 0 0-4 2 2 0 0 0-4 0 2 2 0 0 0-4 0 2 2 0 0 0-4 0 2 2 0 0 0 0 4" />
  <path d="M10 22 9 8" />
  <path d="m14 22 1-14" />
  <path d="M20 8c.5 0 .9.4.8 1l-2.6 12c-.1.5-.7 1-1.2 1H7c-.6 0-1.1-.4-1.2-1L3.2 9c-.1-.6.3-1 .8-1Z" />
</symbol>
<symbol id="icon-vegan" viewBox="0 0 24 24" fill="none" stroke="currentColor" stroke-width="2" stroke-linecap="round" stroke-linejoin="round">
  <path d="M16 8q6 0 6-6-6 0-6 6" />
  <path d="M17.41 3.59a10 10 0 1 0 3 3" />
  <path d="M2 2a26.6 26.6 0 0 1 10 20c.9-6.82 1.5-9.5 4-14" />
</symbol>
<symbol id="icon-utensils" viewBox="0 0 24 24" fill="none" stroke="currentColor" stroke-width="2" stroke-linecap="round" stroke-linejoin="round">
  <path d="M3 2v7c0 1.1.9 2 2 2h4a2 2 0 0 0 2-2V2" />
  <path d="M7 2v20" />
  <path d="M21 15V2a5 5 0 0 0-5 5v6c0 1.1.9 2 2 2h3Zm0 0v7" />
</symbol>
<symbol id="icon-utensils-crossed" viewBox="0 0 24 24" fill="none" stroke="currentColor" stroke-width="2" stroke-linecap="round" stroke-linejoin="round">
  <path d="m16 2-2.3 2.3a3 3 0 0 0 0 4.2l1.8 1.8a3 3 0 0 0 4.2 0L22 8" />
  <path d="M15 15 3.3 3.3a4.2 4.2 0 0 0 0 6l7.3 7.3c.7.7 2 .7 2.8 0L15 15Zm0 0 7 7" />
  <path d="m2.1 21.8 6.4-6.3" />
  <path d="m19 5-7 7" />
</symbol>
<symbol id="icon-chef-hat" viewBox="0 0 24 24" fill="none" stroke="currentColor" stroke-width="2" stroke-linecap="round" stroke-linejoin="round">
  <path d="M17 21a1 1 0 0 0 1-1v-5.35c0-.457.316-.844.727-1.041a4 4 0 0 0-2.134-7.589 5 5 0 0 0-9.186 0 4 4 0 0 0-2.134 7.588c.411.198.727.585.727 1.041V20a1 1 0 0 0 1 1Z" />
  <path d="M6 17h12" />
</symbol>
<symbol id="icon-refrigerator" viewBox="0 0 24 24" fill="none" stroke="currentColor" stroke-width="2" stroke-linecap="round" stroke-linejoin="round">
  <path d="M5 6a4 4 0 0 1 4-4h6a4 4 0 0 1 4 4v14a2 2 0 0 1-2 2H7a2 2 0 0 1-2-2V6Z" />
  <path d="M5 10h14" />
  <path d="M15 7v6" />
</symbol>
<symbol id="icon-microwave" viewBox="0 0 24 24" fill="none" stroke="currentColor" stroke-width="2" stroke-linecap="round" stroke-linejoin="round">
  <rect width="20" height="15" x="2" y="4" rx="2" />
  <rect width="8" height="7" x="6" y="8" rx="1" />
  <path d="M18 8v7" />
  <path d="M6 19v2" />
  <path d="M18 19v2" />
</symbol>
<symbol id="icon-washing-machine" viewBox="0 0 24 24" fill="none" stroke="currentColor" stroke-width="2" stroke-linecap="round" stroke-linejoin="round">
  <path d="M3 6h3" />
  <path d="M17 6h.01" />
  <rect width="18" height="20" x="3" y="2" rx="2" />
  <circle cx="12" cy="13" r="5" />
  <path d="M12 18a2.5 2.5 0 0 0 0-5 2.5 2.5 0 0 1 0-5" />
</symbol>
<symbol id="icon-bath" viewBox="0 0 24 24" fill="none" stroke="currentColor" stroke-width="2" stroke-linecap="round" stroke-linejoin="round">
  <path d="M10 4 8 6" />
  <path d="M17 19v2" />
  <path d="M2 12h20" />
  <path d="M7 19v2" />
  <path d="M9 5 7.621 3.621A2.121 2.121 0 0 0 4 5v12a2 2 0 0 0 2 2h12a2 2 0 0 0 2-2v-5" />
</symbol>
<symbol id="icon-soap-dispenser-droplet" viewBox="0 0 24 24" fill="none" stroke="currentColor" stroke-width="2" stroke-linecap="round" stroke-linejoin="round">
  <path d="M10.5 2v4" />
  <path d="M14 2H7a2 2 0 0 0-2 2" />
  <path d="M19.29 14.76A6.67 6.67 0 0 1 17 11a6.6 6.6 0 0 1-2.29 3.76c-1.15.92-1.71 2.04-1.71 3.19 0 2.22 1.8 4.05 4 4.05s4-1.83 4-4.05c0-1.16-.57-2.26-1.71-3.19" />
  <path d="M9.607 21H6a2 2 0 0 1-2-2v-7a2 2 0 0 1 2-2h7V7a1 1 0 0 0-1-1H9a1 1 0 0 0-1 1v3" />
</symbol>
<symbol id="icon-bottle-wine" viewBox="0 0 24 24" fill="none" stroke="currentColor" stroke-width="2" stroke-linecap="round" stroke-linejoin="round">
  <path d="M10 3a1 1 0 0 1 1-1h2a1 1 0 0 1 1 1v2a6 6 0 0 0 1.2 3.6l.6.8A6 6 0 0 1 17 13v8a1 1 0 0 1-1 1H8a1 1 0 0 1-1-1v-8a6 6 0 0 1 1.2-3.6l.6-.8A6 6 0 0 0 10 5z" />
  <path d="M17 13h-4a1 1 0 0 0-1 1v3a1 1 0 0 0 1 1h4" />
</symbol>
<symbol id="icon-milk-off" viewBox="0 0 24 24" fill="none" stroke="currentColor" stroke-width="2" stroke-linecap="round" stroke-linejoin="round">
  <path d="M8 2h8" />
  <path d="M9 2v1.343M15 2v2.789a4 4 0 0 0 .672 2.219l.656.984a4 4 0 0 1 .672 2.22v1.131M7.8 7.8l-.128.192A4 4 0 0 0 7 10.212V20a2 2 0 0 0 2 2h6a2 2 0 0 0 2-2v-3" />
  <path d="M7 15a6.47 6.47 0 0 1 5 0 6.472 6.472 0 0 0 3.435.435" />
  <line x1="2" x2="22" y1="2" y2="22" />
</symbol>
<symbol id="icon-birdhouse" viewBox="0 0 24 24" fill="none" stroke="currentColor" stroke-width="2" stroke-linecap="round" stroke-linejoin="round">
  <path d="M12 18v4" />
  <path d="m17 18 1.956-11.468" />
  <path d="m3 8 7.82-5.615a2 2 0 0 1 2.36 0L21 8" />
  <path d="M4 18h16" />
  <path d="M7 18 5.044 6.532" />
  <circle cx="12" cy="10" r="2" />
</symbol>
<symbol id="icon-fishing-rod" viewBox="0 0 24 24" fill="none" stroke="currentColor" stroke-width="2" stroke-linecap="round" stroke-linejoin="round">
  <path d="M4 11h1" />
  <path d="M8 15a2 2 0 0 1-4 0V3a1 1 0 0 1 1-1h.5C14 2 20 9 20 18v4" />
  <circle cx="18" cy="18" r="2" />
</symbol>
<symbol id="icon-trophy" viewBox="0 0 24 24" fill="none" stroke="currentColor" stroke-width="2" stroke-linecap="round" stroke-linejoin="round">
  <path d="M10 14.66v1.626a2 2 0 0 1-.976 1.696A5 5 0 0 0 7 21.978" />
  <path d="M14 14.66v1.626a2 2 0 0 0 .976 1.696A5 5 0 0 1 17 21.978" />
  <path d="M18 9h1.5a1 1 0 0 0 0-5H18" />
  <path d="M4 22h16" />
  <path d="M6 9a6 6 0 0 0 12 0V3a1 1 0 0 0-1-1H7a1 1 0 0 0-1 1z" />
  <path d="M6 9H4.5a1 1 0 0 1 0-5H6" />
</symbol>
<symbol id="icon-balloon" viewBox="0 0 24 24" fill="none" stroke="currentColor" stroke-width="2" stroke-linecap="round" stroke-linejoin="round">
  <path d="M12 16v1a2 2 0 0 0 2 2h1a2 2 0 0 1 2 2v1" />
  <path d="M12 6a2 2 0 0 1 2 2" />
  <path d="M18 8c0 4-3.5 8-6 8s-6-4-6-8a6 6 0 0 1 12 0" />
</symbol>
<symbol id="icon-car-front" viewBox="0 0 24 24" fill="none" stroke="currentColor" stroke-width="2" stroke-linecap="round" stroke-linejoin="round">
  <path d="m21 8-2 2-1.5-3.7A2 2 0 0 0 15.646 5H8.4a2 2 0 0 0-1.903 1.257L5 10 3 8" />
  <path d="M7 14h.01" />
  <path d="M17 14h.01" />
  <rect width="18" height="8" x="3" y="10" rx="2" />
  <path d="M5 18v2" />
  <path d="M19 18v2" />
</symbol>
<symbol id="icon-caravan" viewBox="0 0 24 24" fill="none" stroke="currentColor" stroke-width="2" stroke-linecap="round" stroke-linejoin="round">
  <path d="M18 19V9a4 4 0 0 0-4-4H6a4 4 0 0 0-4 4v8a2 2 0 0 0 2 2h2" />
  <path d="M2 9h3a1 1 0 0 1 1 1v2a1 1 0 0 1-1 1H2" />
  <path d="M22 17v1a1 1 0 0 1-1 1H10v-9a1 1 0 0 1 1-1h2a1 1 0 0 1 1 1v9" />
  <circle cx="8" cy="19" r="2" />
</symbol>
<symbol id="icon-motorbike" viewBox="0 0 24 24" fill="none" stroke="currentColor" stroke-width="2" stroke-linecap="round" stroke-linejoin="round">
  <path d="m18 14-1-3" />
  <path d="m3 9 6 2a2 2 0 0 1 2-2h2a2 2 0 0 1 1.99 1.81" />
  <path d="M8 17h3a1 1 0 0 0 1-1 6 6 0 0 1 6-6 1 1 0 0 0 1-1v-.75A5 5 0 0 0 17 5" />
  <circle cx="19" cy="17" r="3" />
  <circle cx="5" cy="17" r="3" />
</symbol>
<symbol id="icon-umbrella" viewBox="0 0 24 24" fill="none" stroke="currentColor" stroke-width="2" stroke-linecap="round" stroke-linejoin="round">
  <path d="M12 13v7a2 2 0 0 0 4 0" />
  <path d="M12 2v2" />
  <path d="M20.992 13a1 1 0 0 0 .97-1.274 10.284 10.284 0 0 0-19.923 0A1 1 0 0 0 3 13z" />
</symbol>
<symbol id="icon-backpack" viewBox="0 0 24 24" fill="none" stroke="currentColor" stroke-width="2" stroke-linecap="round" stroke-linejoin="round">
  <path d="M4 10a4 4 0 0 1 4-4h8a4 4 0 0 1 4 4v10a2 2 0 0 1-2 2H6a2 2 0 0 1-2-2z" />
  <path d="M8 10h8" />
  <path d="M8 18h8" />
  <path d="M8 22v-6a2 2 0 0 1 2-2h4a2 2 0 0 1 2 2v6" />
  <path d="M9 6V4a2 2 0 0 1 2-2h2a2 2 0 0 1 2 2v2" />
</symbol>
<symbol id="icon-map-pin" viewBox="0 0 24 24" fill="none" stroke="currentColor" stroke-width="2" stroke-linecap="round" stroke-linejoin="round">
  <path d="M20 10c0 4.993-5.539 10.193-7.399 11.799a1 1 0 0 1-1.202 0C9.539 20.193 4 14.993 4 10a8 8 0 0 1 16 0" />
  <circle cx="12" cy="10" r="3" />
</symbol>
<symbol id="icon-flower-2" viewBox="0 0 24 24" fill="none" stroke="currentColor" stroke-width="2" stroke-linecap="round" stroke-linejoin="round">
  <path d="M12 5a3 3 0 1 1 3 3m-3-3a3 3 0 1 0-3 3m3-3v1M9 8a3 3 0 1 0 3 3M9 8h1m5 0a3 3 0 1 1-3 3m3-3h-1m-2 3v-1" />
  <circle cx="12" cy="8" r="2" />
  <path d="M12 10v12" />
  <path d="M12 22c4.2 0 7-1.667 7-5-4.2 0-7 1.667-7 5Z" />
  <path d="M12 22c-4.2 0-7-1.667-7-5 4.2 0 7 1.667 7 5Z" />
</symbol>
<symbol id="icon-leaf" viewBox="0 0 24 24" fill="none" stroke="currentColor" stroke-width="2" stroke-linecap="round" stroke-linejoin="round">
  <path d="M11 20A7 7 0 0 1 9.8 6.1C15.5 5 17 4.48 19 2c1 2 2 4.18 2 8 0 5.5-4.78 10-10 10Z" />
  <path d="M2 21c0-3 1.85-5.36 5.08-6C9.5 14.52 12 13 13 12" />
</symbol>
<symbol id="icon-recycle" viewBox="0 0 24 24" fill="none" stroke="currentColor" stroke-width="2" stroke-linecap="round" stroke-linejoin="round">
  <path d="M7 19H4.815a1.83 1.83 0 0 1-1.57-.881 1.785 1.785 0 0 1-.004-1.784L7.196 9.5" />
  <path d="M11 19h8.203a1.83 1.83 0 0 0 1.556-.89 1.784 1.784 0 0 0 0-1.775l-1.226-2.12" />
  <path d="m14 16-3 3 3 3" />
  <path d="M8.293 13.596 7.196 9.5 3.1 10.598" />
  <path d="m9.344 5.811 1.093-1.892A1.83 1.83 0 0 1 11.985 3a1.784 1.784 0 0 1 1.546.888l3.943 6.843" />
  <path d="m13.378 9.633 4.096 1.098 1.097-4.096" />
</symbol>
<symbol id="icon-h-scale" viewBox="0 0 24 24" fill="none" stroke="currentColor" stroke-width="1.5">
  <path stroke-linecap="round" stroke-linejoin="round" d="M12 3v17.25m0 0c-1.472 0-2.882.265-4.185.75M12 20.25c1.472 0 2.882.265 4.185.75M18.75 4.97A48.416 48.416 0 0 0 12 4.5c-2.291 0-4.545.16-6.75.47m13.5 0c1.01.143 2.01.317 3 .52m-3-.52 2.62 10.726c.122.499-.106 1.028-.589 1.202a5.988 5.988 0 0 1-2.031.352 5.988 5.988 0 0 1-2.031-.352c-.483-.174-.711-.703-.59-1.202L18.75 4.971Zm-16.5.52c.99-.203 1.99-.377 3-.52m0 0 2.62 10.726c.122.499-.106 1.028-.589 1.202a5.989 5.989 0 0 1-2.031.352 5.989 5.989 0 0 1-2.031-.352c-.483-.174-.711-.703-.59-1.202L5.25 4.971Z"/>
</symbol>
<symbol id="icon-h-beaker" viewBox="0 0 24 24" fill="none" stroke="currentColor" stroke-width="1.5">
  <path stroke-linecap="round" stroke-linejoin="round" d="M9.75 3.104v5.714a2.25 2.25 0 0 1-.659 1.591L5 14.5M9.75 3.104c-.251.023-.501.05-.75.082m.75-.082a24.301 24.301 0 0 1 4.5 0m0 0v5.714c0 .597.237 1.17.659 1.591L19.8 15.3M14.25 3.104c.251.023.501.05.75.082M19.8 15.3l-1.57.393A9.065 9.065 0 0 1 12 15a9.065 9.065 0 0 0-6.23-.693L5 14.5m14.8.8 1.402 1.402c1.232 1.232.65 3.318-1.067 3.611A48.309 48.309 0 0 1 12 21c-2.773 0-5.491-.235-8.135-.687-1.718-.293-2.3-2.379-1.067-3.61L5 14.5"/>
</symbol>
<symbol id="icon-h-truck" viewBox="0 0 24 24" fill="none" stroke="currentColor" stroke-width="1.5">
  <path stroke-linecap="round" stroke-linejoin="round" d="M8.25 18.75a1.5 1.5 0 0 1-3 0m3 0a1.5 1.5 0 0 0-3 0m3 0h6m-9 0H3.375a1.125 1.125 0 0 1-1.125-1.125V14.25m17.25 4.5a1.5 1.5 0 0 1-3 0m3 0a1.5 1.5 0 0 0-3 0m3 0h1.125c.621 0 1.129-.504 1.09-1.124a17.902 17.902 0 0 0-3.213-9.193 2.056 2.056 0 0 0-1.58-.86H14.25M16.5 18.75h-2.25m0-11.177v-.958c0-.568-.422-1.048-.987-1.106a48.554 48.554 0 0 0-10.026 0 1.106 1.106 0 0 0-.987 1.106v7.635m12-6.677v6.677m0 4.5v-4.5m0 0h-12"/>
</symbol>
<symbol id="icon-h-briefcase" viewBox="0 0 24 24" fill="none" stroke="currentColor" stroke-width="1.5">
  <path stroke-linecap="round" stroke-linejoin="round" d="M20.25 14.15v4.25c0 1.094-.787 2.036-1.872 2.18-2.087.277-4.216.42-6.378.42s-4.291-.143-6.378-.42c-1.085-.144-1.872-1.086-1.872-2.18v-4.25m16.5 0a2.18 2.18 0 0 0 .75-1.661V8.706c0-1.081-.768-2.015-1.837-2.175a48.114 48.114 0 0 0-3.413-.387m4.5 8.006c-.194.165-.42.295-.673.38A23.978 23.978 0 0 1 12 15.75c-2.648 0-5.195-.429-7.577-1.22a2.016 2.016 0 0 1-.673-.38m0 0A2.18 2.18 0 0 1 3 12.489V8.706c0-1.081.768-2.015 1.837-2.175a48.111 48.111 0 0 1 3.413-.387m7.5 0V5.25A2.25 2.25 0 0 0 13.5 3h-3a2.25 2.25 0 0 0-2.25 2.25v.894m7.5 0a48.667 48.667 0 0 0-7.5 0M12 12.75h.008v.008H12v-.008Z"/>
</symbol>
<symbol id="icon-h-building-storefront" viewBox="0 0 24 24" fill="none" stroke="currentColor" stroke-width="1.5">
  <path stroke-linecap="round" stroke-linejoin="round" d="M13.5 21v-7.5a.75.75 0 0 1 .75-.75h3a.75.75 0 0 1 .75.75V21m-4.5 0H2.36m11.14 0H18m0 0h3.64m-1.39 0V9.349M3.75 21V9.349m0 0a3.001 3.001 0 0 0 3.75-.615A2.993 2.993 0 0 0 9.75 9.75c.896 0 1.7-.393 2.25-1.016a2.993 2.993 0 0 0 2.25 1.016c.896 0 1.7-.393 2.25-1.015a3.001 3.001 0 0 0 3.75.614m-16.5 0a3.004 3.004 0 0 1-.621-4.72l1.189-1.19A1.5 1.5 0 0 1 5.378 3h13.243a1.5 1.5 0 0 1 1.06.44l1.19 1.189a3 3 0 0 1-.621 4.72M6.75 18h3.75a.75.75 0 0 0 .75-.75V13.5a.75.75 0 0 0-.75-.75H6.75a.75.75 0 0 0-.75.75v3.75c0 .414.336.75.75.75Z"/>
</symbol>
<symbol id="icon-h-calculator" viewBox="0 0 24 24" fill="none" stroke="currentColor" stroke-width="1.5">
  <path stroke-linecap="round" stroke-linejoin="round" d="M15.75 15.75V18m-7.5-6.75h.008v.008H8.25v-.008Zm0 2.25h.008v.008H8.25V13.5Zm0 2.25h.008v.008H8.25v-.008Zm0 2.25h.008v.008H8.25V18Zm2.498-6.75h.007v.008h-.007v-.008Zm0 2.25h.007v.008h-.007V13.5Zm0 2.25h.007v.008h-.007v-.008Zm0 2.25h.007v.008h-.007V18Zm2.504-6.75h.008v.008h-.008v-.008Zm0 2.25h.008v.008h-.008V13.5Zm0 2.25h.008v.008h-.008v-.008Zm0 2.25h.008v.008h-.008V18Zm2.498-6.75h.008v.008h-.008v-.008Zm0 2.25h.008v.008h-.008V13.5ZM8.25 6h7.5v2.25h-7.5V6ZM12 2.25c-1.892 0-3.758.11-5.593.322C5.307 2.7 4.5 3.65 4.5 4.757V19.5a2.25 2.25 0 0 0 2.25 2.25h10.5a2.25 2.25 0 0 0 2.25-2.25V4.757c0-1.108-.806-2.057-1.907-2.185A48.507 48.507 0 0 0 12 2.25Z"/>
</symbol>
<symbol id="icon-h-musical-note" viewBox="0 0 24 24" fill="none" stroke="currentColor" stroke-width="1.5">
  <path stroke-linecap="round" stroke-linejoin="round" d="m9 9 10.5-3m0 6.553v3.75a2.25 2.25 0 0 1-1.632 2.163l-1.32.377a1.803 1.803 0 1 1-.99-3.467l2.31-.66a2.25 2.25 0 0 0 1.632-2.163Zm0 0V2.25L9 5.25v10.303m0 0v3.75a2.25 2.25 0 0 1-1.632 2.163l-1.32.377a1.803 1.803 0 0 1-.99-3.467l2.31-.66A2.25 2.25 0 0 0 9 15.553Z"/>
</symbol>
<symbol id="icon-h-tv" viewBox="0 0 24 24" fill="none" stroke="currentColor" stroke-width="1.5">
  <path stroke-linecap="round" stroke-linejoin="round" d="M6 20.25h12m-7.5-3v3m3-3v3m-10.125-3h17.25c.621 0 1.125-.504 1.125-1.125V4.875c0-.621-.504-1.125-1.125-1.125H3.375c-.621 0-1.125.504-1.125 1.125v11.25c0 .621.504 1.125 1.125 1.125Z"/>
</symbol>
<symbol id="icon-h-cube" viewBox="0 0 24 24" fill="none" stroke="currentColor" stroke-width="1.5">
  <path stroke-linecap="round" stroke-linejoin="round" d="m21 7.5-9-5.25L3 7.5m18 0-9 5.25m9-5.25v9l-9 5.25M3 7.5l9 5.25M3 7.5v9l9 5.25m0-9v9"/>
</symbol>
<symbol id="icon-h-swatch" viewBox="0 0 24 24" fill="none" stroke="currentColor" stroke-width="1.5">
  <path stroke-linecap="round" stroke-linejoin="round" d="M4.098 19.902a3.75 3.75 0 0 0 5.304 0l6.401-6.402M6.75 21A3.75 3.75 0 0 1 3 17.25V4.125C3 3.504 3.504 3 4.125 3h5.25c.621 0 1.125.504 1.125 1.125v4.072M6.75 21a3.75 3.75 0 0 0 3.75-3.75V8.197M6.75 21h13.125c.621 0 1.125-.504 1.125-1.125v-5.25c0-.621-.504-1.125-1.125-1.125h-4.072M10.5 8.197l2.88-2.88c.438-.439 1.15-.439 1.59 0l3.712 3.713c.44.44.44 1.152 0 1.59l-2.879 2.88M6.75 17.25h.008v.008H6.75v-.008Z"/>
</symbol>
<symbol id="icon-h-wallet" viewBox="0 0 24 24" fill="none" stroke="currentColor" stroke-width="1.5">
  <path stroke-linecap="round" stroke-linejoin="round" d="M21 12a2.25 2.25 0 0 0-2.25-2.25H15a3 3 0 1 1-6 0H5.25A2.25 2.25 0 0 0 3 12m18 0v6a2.25 2.25 0 0 1-2.25 2.25H5.25A2.25 2.25 0 0 1 3 18v-6m18 0V9M3 12V9m18 0a2.25 2.25 0 0 0-2.25-2.25H5.25A2.25 2.25 0 0 0 3 9m18 0V6a2.25 2.25 0 0 0-2.25-2.25H5.25A2.25 2.25 0 0 0 3 6v3"/>
</symbol>
<symbol id="icon-h-credit-card" viewBox="0 0 24 24" fill="none" stroke="currentColor" stroke-width="1.5">
  <path stroke-linecap="round" stroke-linejoin="round" d="M2.25 8.25h19.5M2.25 9h19.5m-16.5 5.25h6m-6 2.25h3m-3.75 3h15a2.25 2.25 0 0 0 2.25-2.25V6.75A2.25 2.25 0 0 0 19.5 4.5h-15a2.25 2.25 0 0 0-2.25 2.25v10.5A2.25 2.25 0 0 0 4.5 19.5Z"/>
</symbol>
<symbol id="icon-h-receipt-percent" viewBox="0 0 24 24" fill="none" stroke="currentColor" stroke-width="1.5">
  <path stroke-linecap="round" stroke-linejoin="round" d="m9 14.25 6-6m4.5-3.493V21.75l-3.75-1.5-3.75 1.5-3.75-1.5-3.75 1.5V4.757c0-1.108.806-2.057 1.907-2.185a48.507 48.507 0 0 1 11.186 0c1.1.128 1.907 1.077 1.907 2.185ZM9.75 9h.008v.008H9.75V9Zm.375 0a.375.375 0 1 1-.75 0 .375.375 0 0 1 .75 0Zm4.125 4.5h.008v.008h-.008V13.5Zm.375 0a.375.375 0 1 1-.75 0 .375.375 0 0 1 .75 0Z"/>
</symbol>
<symbol id="icon-h-user-group" viewBox="0 0 24 24" fill="none" stroke="currentColor" stroke-width="1.5">
  <path stroke-linecap="round" stroke-linejoin="round" d="M18 18.72a9.094 9.094 0 0 0 3.741-.479 3 3 0 0 0-4.682-2.72m.94 3.198.001.031c0 .225-.012.447-.037.666A11.944 11.944 0 0 1 12 21c-2.17 0-4.207-.576-5.963-1.584A6.062 6.062 0 0 1 6 18.719m12 0a5.971 5.971 0 0 0-.941-3.197m0 0A5.995 5.995 0 0 0 12 12.75a5.995 5.995 0 0 0-5.058 2.772m0 0a3 3 0 0 0-4.681 2.72 8.986 8.986 0 0 0 3.74.477m.94-3.197a5.971 5.971 0 0 0-.94 3.197M15 6.75a3 3 0 1 1-6 0 3 3 0 0 1 6 0Zm6 3a2.25 2.25 0 1 1-4.5 0 2.25 2.25 0 0 1 4.5 0Zm-13.5 0a2.25 2.25 0 1 1-4.5 0 2.25 2.25 0 0 1 4.5 0Z"/>
</symbol>
<symbol id="icon-h-heart" viewBox="0 0 24 24" fill="none" stroke="currentColor" stroke-width="1.5">
  <path stroke-linecap="round" stroke-linejoin="round" d="M21 8.25c0-2.485-2.099-4.5-4.688-4.5-1.935 0-3.597 1.126-4.312 2.733-.715-1.607-2.377-2.733-4.313-2.733C5.1 3.75 3 5.765 3 8.25c0 7.22 9 12 9 12s9-4.78 9-12Z"/>
</symbol>
<symbol id="icon-h-star" viewBox="0 0 24 24" fill="none" stroke="currentColor" stroke-width="1.5">
  <path stroke-linecap="round" stroke-linejoin="round" d="M11.48 3.499a.562.562 0 0 1 1.04 0l2.125 5.111a.563.563 0 0 0 .475.345l5.518.442c.499.04.701.663.321.988l-4.204 3.602a.563.563 0 0 0-.182.557l1.285 5.385a.562.562 0 0 1-.84.61l-4.725-2.885a.562.562 0 0 0-.586 0L6.982 20.54a.562.562 0 0 1-.84-.61l1.285-5.386a.562.562 0 0 0-.182-.557l-4.204-3.602a.562.562 0 0 1 .321-.988l5.518-.442a.563.563 0 0 0 .475-.345L11.48 3.5Z"/>
</symbol>
<symbol id="icon-h-calendar" viewBox="0 0 24 24" fill="none" stroke="currentColor" stroke-width="1.5">
  <path stroke-linecap="round" stroke-linejoin="round" d="M6.75 3v2.25M17.25 3v2.25M3 18.75V7.5a2.25 2.25 0 0 1 2.25-2.25h13.5A2.25 2.25 0 0 1 21 7.5v11.25m-18 0A2.25 2.25 0 0 0 5.25 21h13.5A2.25 2.25 0 0 0 21 18.75m-18 0v-7.5A2.25 2.25 0 0 1 5.25 9h13.5A2.25 2.25 0 0 1 21 11.25v7.5"/>
</symbol>
</svg>
